<svg width="125" height="36" viewBox="0 0 125 36" fill="none" xmlns="http://www.w3.org/2000/svg">
<path d="M16.6489 17.7016V22.9892C16.6489 23.6946 16.3687 24.371 15.8699 24.8698C15.3711 25.3686 14.6947 25.6488 13.9893 25.6488H6.01045C5.30508 25.6488 4.62859 25.3686 4.12982 24.8698C3.63104 24.371 3.35083 23.6946 3.35083 22.9892V17.7016L8.00516 11.6858H11.9946L16.6489 17.7016Z" fill="#9282FA" fill-opacity="0.4"/>
<path d="M19.2844 18.0855L17.9197 10.7716C17.8864 10.5933 17.8169 10.4237 17.7156 10.2733C17.6143 10.1229 17.4833 9.99472 17.3306 9.89679C17.1779 9.79886 17.0069 9.73319 16.8278 9.70382C16.6489 9.67446 16.4658 9.68201 16.2898 9.72603L16.2641 9.73351L11.899 11.0209H8.10072L3.73562 9.73767L3.70985 9.73019C3.5339 9.68617 3.35081 9.67861 3.17183 9.70798C2.99285 9.73735 2.82177 9.80302 2.66911 9.90095C2.51645 9.99888 2.38544 10.127 2.28413 10.2775C2.18282 10.4279 2.11335 10.5975 2.08001 10.7758L0.715295 18.0855C0.656937 18.3783 0.700259 18.6822 0.838083 18.947C0.975914 19.2117 1.20001 19.4216 1.47328 19.5417C1.64829 19.622 1.83844 19.6639 2.03097 19.6647C2.26142 19.6646 2.48761 19.6026 2.6859 19.4852V22.9892C2.6859 23.871 3.03617 24.7165 3.65963 25.34C4.2831 25.9635 5.12871 26.3137 6.01042 26.3137H13.9893C14.871 26.3137 15.7166 25.9635 16.34 25.34C16.9636 24.7165 17.3138 23.871 17.3138 22.9892V19.486C17.5119 19.6032 17.7378 19.6652 17.9679 19.6655C18.1606 19.6649 18.3511 19.6233 18.5264 19.5433C18.8 19.4232 19.0243 19.2131 19.1622 18.9479C19.3 18.6828 19.3432 18.3785 19.2844 18.0855ZM2.021 18.3349L3.38655 11.0209L6.88311 12.049L2.021 18.3349ZM13.9893 24.9839H10.6648V23.9292L11.8001 22.7947C11.9248 22.67 11.9949 22.5008 11.9949 22.3243C11.9949 22.1478 11.9248 21.9786 11.8001 21.8539C11.6753 21.7291 11.5061 21.6591 11.3297 21.6591C11.1532 21.6591 10.984 21.7291 10.8592 21.8539L9.99985 22.7141L9.14047 21.8539C9.01571 21.7291 8.84649 21.6591 8.67005 21.6591C8.4936 21.6591 8.32438 21.7291 8.19963 21.8539C8.07487 21.9786 8.00473 22.1479 8.00473 22.3243C8.00473 22.5007 8.07487 22.67 8.19963 22.7947L9.33495 23.9292V24.9839H6.01042C5.48139 24.9839 4.97403 24.7737 4.59995 24.3997C4.22587 24.0256 4.01571 23.5182 4.01571 22.9892V17.9285L8.33178 12.3507H11.6679L15.984 17.9285V22.9892C15.984 23.5182 15.7738 24.0256 15.3997 24.3997C15.0257 24.7737 14.5183 24.9839 13.9893 24.9839ZM17.9787 18.3349L13.1166 12.049L16.6132 11.0209L17.9787 18.3349ZM8.00514 19.3322C8.00514 19.5295 7.94663 19.7223 7.83709 19.8863C7.72746 20.0503 7.57169 20.1782 7.38945 20.2537C7.20721 20.3292 7.00667 20.3489 6.8132 20.3104C6.61974 20.2719 6.44203 20.1769 6.30254 20.0374C6.16306 19.898 6.06807 19.7203 6.02959 19.5268C5.99111 19.3333 6.01085 19.1328 6.08634 18.9506C6.16183 18.7683 6.28967 18.6126 6.45368 18.5029C6.6177 18.3934 6.81052 18.3349 7.00778 18.3349C7.27229 18.3349 7.52598 18.4399 7.713 18.627C7.90009 18.814 8.00514 19.0677 8.00514 19.3322ZM13.9893 19.3322C13.9893 19.5295 13.9308 19.7223 13.8212 19.8863C13.7116 20.0503 13.5558 20.1782 13.3736 20.2537C13.1913 20.3292 12.9908 20.3489 12.7974 20.3104C12.6039 20.2719 12.4262 20.1769 12.2867 20.0374C12.1472 19.898 12.0522 19.7203 12.0137 19.5268C11.9752 19.3333 11.995 19.1328 12.0705 18.9506C12.146 18.7683 12.2738 18.6126 12.4378 18.5029C12.6018 18.3934 12.7947 18.3349 12.9919 18.3349C13.2565 18.3349 13.5101 18.4399 13.6971 18.627C13.8842 18.814 13.9893 19.0677 13.9893 19.3322Z" fill="#9282FA"/>
<path d="M25.0133 24V13.6H28.96L30.8933 22.24H31.3733L33.3067 13.6H37.2533V24H35.1733V15.44H34.8267L32.9333 24H29.2267L27.3333 15.44H26.9867V24H25.0133ZM43.599 24.2C42.0967 24.2 40.9767 23.8133 40.239 23.04C39.5101 22.2578 39.1456 21.1422 39.1456 19.6933V13.6H41.4123V19.6267C41.4123 20.48 41.5723 21.1467 41.8923 21.6267C42.2212 22.1067 42.799 22.3467 43.6256 22.3467C44.4612 22.3467 45.039 22.1067 45.359 21.6267C45.679 21.1467 45.839 20.48 45.839 19.6267V13.6H48.0523V19.6933C48.0523 21.1422 47.6878 22.2578 46.959 23.04C46.2301 23.8133 45.1101 24.2 43.599 24.2ZM49.9508 24V13.6H53.8175L57.0442 22.24H57.3642V13.6H59.3908V24H55.4975L52.2842 15.36H51.9775V24H49.9508ZM61.4196 24V13.6H65.1263C66.9751 13.6 68.3174 14.0578 69.1529 14.9733C69.9885 15.88 70.4062 17.1556 70.4062 18.8C70.4062 20.4444 69.9885 21.7244 69.1529 22.64C68.3174 23.5467 66.9751 24 65.1263 24H61.4196ZM63.6596 22.2667H64.9929C65.6774 22.2667 66.2463 22.1644 66.6996 21.96C67.1618 21.7467 67.5085 21.3911 67.7396 20.8933C67.9707 20.3867 68.0863 19.6889 68.0863 18.8C68.0863 17.9111 67.9707 17.2178 67.7396 16.72C67.5085 16.2133 67.1618 15.8578 66.6996 15.6533C66.2463 15.44 65.6774 15.3333 64.9929 15.3333H63.6596V22.2667ZM76.1458 24.1867C75.0436 24.1867 74.1236 23.9689 73.3858 23.5333C72.6569 23.0889 72.1103 22.4622 71.7458 21.6533C71.3903 20.8444 71.2125 19.8933 71.2125 18.8C71.2125 17.6978 71.3903 16.7467 71.7458 15.9467C72.1103 15.1378 72.6569 14.5156 73.3858 14.08C74.1236 13.6356 75.0436 13.4133 76.1458 13.4133C77.2569 13.4133 78.1769 13.6356 78.9058 14.08C79.6347 14.5156 80.1769 15.1378 80.5325 15.9467C80.8969 16.7467 81.0792 17.6978 81.0792 18.8C81.0792 19.8933 80.8969 20.8444 80.5325 21.6533C80.1769 22.4622 79.6347 23.0889 78.9058 23.5333C78.1769 23.9689 77.2569 24.1867 76.1458 24.1867ZM76.1458 22.5067C77.0436 22.5067 77.7014 22.1867 78.1192 21.5467C78.5458 20.8978 78.7592 19.9822 78.7592 18.8C78.7592 17.6089 78.5458 16.6933 78.1192 16.0533C77.7014 15.4133 77.0436 15.0933 76.1458 15.0933C75.2481 15.0933 74.5858 15.4133 74.1592 16.0533C73.7414 16.6933 73.5325 17.6089 73.5325 18.8C73.5325 19.9822 73.7414 20.8978 74.1592 21.5467C74.5858 22.1867 75.2481 22.5067 76.1458 22.5067ZM85.7008 24V13.6H90.0475C91.3808 13.6 92.3542 13.8844 92.9675 14.4533C93.5808 15.0133 93.8875 15.7689 93.8875 16.72C93.8875 17.6711 93.5808 18.4311 92.9675 19C92.3631 19.5689 91.3897 19.8533 90.0475 19.8533H87.9142V24H85.7008ZM87.9142 18.1733H89.7142C90.3186 18.1733 90.7897 18.0711 91.1275 17.8667C91.4742 17.6533 91.6475 17.2756 91.6475 16.7333C91.6475 16.2 91.4742 15.8267 91.1275 15.6133C90.7897 15.3911 90.3186 15.28 89.7142 15.28H87.9142V18.1733ZM95.2946 24V13.6H102.388V15.36H97.5079V17.6533H101.268V19.28H97.5079V22.24H102.468V24H95.2946ZM106.558 24V15.36H103.478V13.6H111.878V15.36H108.798V24H106.558Z" fill="#9282FA"/>
</svg>
